<svg aria-hidden="true" style="position: absolute; width: 0; height: 0; overflow: hidden;" version="1.1" xmlns="http://www.w3.org/2000/svg" xmlns:xlink="http://www.w3.org/1999/xlink">
<defs>
<symbol id="icon-expand" viewBox="0 0 24 28">
<title>expand</title>
<path d="M11.797 16.5c0 0.125-0.063 0.266-0.156 0.359l-5.187 5.187 2.25 2.25c0.187 0.187 0.297 0.438 0.297 0.703 0 0.547-0.453 1-1 1h-7c-0.547 0-1-0.453-1-1v-7c0-0.547 0.453-1 1-1 0.266 0 0.516 0.109 0.703 0.297l2.25 2.25 5.187-5.187c0.094-0.094 0.234-0.156 0.359-0.156s0.266 0.063 0.359 0.156l1.781 1.781c0.094 0.094 0.156 0.234 0.156 0.359zM24 3v7c0 0.547-0.453 1-1 1-0.266 0-0.516-0.109-0.703-0.297l-2.25-2.25-5.187 5.187c-0.094 0.094-0.234 0.156-0.359 0.156s-0.266-0.063-0.359-0.156l-1.781-1.781c-0.094-0.094-0.156-0.234-0.156-0.359s0.063-0.266 0.156-0.359l5.187-5.187-2.25-2.25c-0.187-0.187-0.297-0.438-0.297-0.703 0-0.547 0.453-1 1-1h7c0.547 0 1 0.453 1 1z"></path>
</symbol>
<symbol id="icon-compress" viewBox="0 0 24 28">
<title>compress</title>
<path d="M12 15v7c0 0.547-0.453 1-1 1-0.266 0-0.516-0.109-0.703-0.297l-2.25-2.25-5.187 5.187c-0.094 0.094-0.234 0.156-0.359 0.156s-0.266-0.063-0.359-0.156l-1.781-1.781c-0.094-0.094-0.156-0.234-0.156-0.359s0.063-0.266 0.156-0.359l5.187-5.187-2.25-2.25c-0.187-0.187-0.297-0.438-0.297-0.703 0-0.547 0.453-1 1-1h7c0.547 0 1 0.453 1 1zM23.797 4.5c0 0.125-0.063 0.266-0.156 0.359l-5.187 5.187 2.25 2.25c0.187 0.187 0.297 0.438 0.297 0.703 0 0.547-0.453 1-1 1h-7c-0.547 0-1-0.453-1-1v-7c0-0.547 0.453-1 1-1 0.266 0 0.516 0.109 0.703 0.297l2.25 2.25 5.187-5.187c0.094-0.094 0.234-0.156 0.359-0.156s0.266 0.063 0.359 0.156l1.781 1.781c0.094 0.094 0.156 0.234 0.156 0.359z"></path>
</symbol>
<symbol id="icon-lift" viewBox="0 0 32 32">
<title>lift</title>
<path d="M32 14v4h-4v4h-4v4h-4v-8h-8v8h-4v-4h-4v-4h-4v-4h4v-4h4v-4h4v8h8v-8h4v4h4v4h4z"></path>
</symbol>
<symbol id="icon-weights" viewBox="0 0 32 32">
<title>weights</title>
<path d="M23 17h-13v3.494c0 0.835-0.672 1.506-1.5 1.506-0.834 0-1.5-0.674-1.5-1.506v-0.579c-0.156 0.055-0.325 0.085-0.5 0.085-0.834 0-1.5-0.672-1.5-1.502v-1.498h-2v-1h2v-1.498c0-0.831 0.672-1.502 1.5-1.502 0.176 0 0.344 0.030 0.5 0.085v0-0.578c0-0.835 0.672-1.506 1.5-1.506 0.834 0 1.5 0.674 1.5 1.506v3.494h13v-3.494c0-0.835 0.672-1.506 1.5-1.506 0.834 0 1.5 0.674 1.5 1.506v0.579c0.156-0.055 0.325-0.085 0.5-0.085 0.834 0 1.5 0.672 1.5 1.502v1.498h2v1h-2v1.498c0 0.831-0.672 1.502-1.5 1.502-0.176 0-0.344-0.030-0.5-0.085v0.578c0 0.835-0.672 1.506-1.5 1.506-0.834 0-1.5-0.674-1.5-1.506v-3.494z"></path>
</symbol>
<symbol id="icon-clock" viewBox="0 0 20 20">
<title>clock</title>
<path d="M10 0.4c-5.303 0-9.601 4.298-9.601 9.6 0 5.303 4.298 9.601 9.601 9.601 5.301 0 9.6-4.298 9.6-9.601s-4.299-9.6-9.6-9.6zM9.999 17.6c-4.197 0-7.6-3.402-7.6-7.6 0-4.197 3.402-7.6 7.6-7.6 4.197 0 7.601 3.402 7.601 7.6 0 4.197-3.404 7.6-7.601 7.6zM11 9.33v-5.33h-2v6.245l-3.546 2.048 1 1.732 4.115-2.377c0.238-0.137 0.431-0.473 0.431-0.748v-0.168l4.24-4.166c-0.198-0.271-0.411-0.529-0.647-0.766l-3.593 3.53z"></path>
</symbol>
<symbol id="icon-star" viewBox="0 0 20 20">
<title>star</title>
<path d="M10 1.3l2.388 6.722h6.412l-5.232 3.948 1.871 6.928-5.439-4.154-5.438 4.154 1.87-6.928-5.233-3.948h6.412l2.389-6.722z"></path>
</symbol>
<symbol id="icon-trophy" viewBox="0 0 20 20">
<title>trophy</title>
<path d="M11.18 14.356c0-1.451 1.1-2.254 2.894-3.442 2.194-1.456 4.926-3.265 4.926-7.56 0-0.387-0.317-0.699-0.709-0.699h-3.43c-0.484-0.896-1.929-1.855-4.861-1.855-2.934 0-4.377 0.959-4.862 1.855h-3.431c-0.391 0-0.707 0.313-0.707 0.699 0 4.295 2.73 6.104 4.926 7.559 1.794 1.188 2.894 1.991 2.894 3.442v1.311c-1.884 0.209-3.269 0.906-3.269 1.736 0 0.994 1.992 1.799 4.449 1.799s4.449-0.805 4.449-1.799c0-0.83-1.385-1.527-3.269-1.736v-1.31zM13.957 9.3c0.566-1.199 1.016-2.826 1.088-5.246h2.51c-0.24 2.701-1.862 4.064-3.598 5.246zM10 2.026c2.732-0.002 3.799 1.115 3.798 1.529 0 0.418-1.066 1.533-3.798 1.535-2.732-0.001-3.799-1.116-3.799-1.534-0.001-0.414 1.067-1.532 3.799-1.53zM2.445 4.054h2.509c0.073 2.42 0.521 4.047 1.089 5.246-1.736-1.182-3.359-2.545-3.598-5.246z"></path>
</symbol>
<symbol id="icon-funnel" viewBox="0 0 20 20">
<title>funnel</title>
<path d="M10 1c-4.908 0-8 1.512-8 3.001v2c0 0.918 6 6 6 6v6c-0.001 0.684 1 1 2 1s2.001-0.316 2-1v-6c0 0 6-5.082 6-6v-2c0-1.489-3.092-3.001-8-3.001zM10 6.123c-3.591-0.001-6.138-1.333-6.138-1.831-0.002-0.495 2.548-1.831 6.138-1.829 3.59-0.002 6.14 1.334 6.138 1.828 0 0.499-2.547 1.831-6.138 1.832z"></path>
</symbol>
</defs>
</svg>
