<svg aria-hidden="true" style="position: absolute; width: 0; height: 0; overflow: hidden;" version="1.1" xmlns="http://www.w3.org/2000/svg" xmlns:xlink="http://www.w3.org/1999/xlink">
<defs>
<symbol id="icon-weights" viewBox="0 0 32 32">
<title>weights</title>
<path d="M23 17h-13v3.494c0 0.835-0.672 1.506-1.5 1.506-0.834 0-1.5-0.674-1.5-1.506v-0.579c-0.156 0.055-0.325 0.085-0.5 0.085-0.834 0-1.5-0.672-1.5-1.502v-1.498h-2v-1h2v-1.498c0-0.831 0.672-1.502 1.5-1.502 0.176 0 0.344 0.030 0.5 0.085v0-0.578c0-0.835 0.672-1.506 1.5-1.506 0.834 0 1.5 0.674 1.5 1.506v3.494h13v-3.494c0-0.835 0.672-1.506 1.5-1.506 0.834 0 1.5 0.674 1.5 1.506v0.579c0.156-0.055 0.325-0.085 0.5-0.085 0.834 0 1.5 0.672 1.5 1.502v1.498h2v1h-2v1.498c0 0.831-0.672 1.502-1.5 1.502-0.176 0-0.344-0.030-0.5-0.085v0.578c0 0.835-0.672 1.506-1.5 1.506-0.834 0-1.5-0.674-1.5-1.506v-3.494z"></path>
</symbol>
<symbol id="icon-weights1" viewBox="0 0 32 32">
<title>weights1</title>
<path d="M23 17h-13v3.494c0 0.835-0.672 1.506-1.5 1.506-0.834 0-1.5-0.674-1.5-1.506v-0.579c-0.156 0.055-0.325 0.085-0.5 0.085-0.834 0-1.5-0.672-1.5-1.502v-1.498h-2v-1h2v-1.498c0-0.831 0.672-1.502 1.5-1.502 0.176 0 0.344 0.030 0.5 0.085v0-0.578c0-0.835 0.672-1.506 1.5-1.506 0.834 0 1.5 0.674 1.5 1.506v3.494h13v-3.494c0-0.835 0.672-1.506 1.5-1.506 0.834 0 1.5 0.674 1.5 1.506v0.579c0.156-0.055 0.325-0.085 0.5-0.085 0.834 0 1.5 0.672 1.5 1.502v1.498h2v1h-2v1.498c0 0.831-0.672 1.502-1.5 1.502-0.176 0-0.344-0.030-0.5-0.085v0.578c0 0.835-0.672 1.506-1.5 1.506-0.834 0-1.5-0.674-1.5-1.506v-3.494zM26.5 14c-0.276 0-0.5 0.215-0.5 0.498v4.005c0 0.275 0.232 0.498 0.5 0.498 0.276 0 0.5-0.215 0.5-0.498v-4.005c0-0.275-0.232-0.498-0.5-0.498v0zM6.5 14c-0.276 0-0.5 0.215-0.5 0.498v4.005c0 0.275 0.232 0.498 0.5 0.498 0.276 0 0.5-0.215 0.5-0.498v-4.005c0-0.275-0.232-0.498-0.5-0.498v0zM24.5 12c-0.276 0-0.5 0.222-0.5 0.51v7.981c0 0.281 0.232 0.51 0.5 0.51 0.276 0 0.5-0.222 0.5-0.51v-7.981c0-0.281-0.232-0.51-0.5-0.51v0zM8.5 12c-0.276 0-0.5 0.222-0.5 0.51v7.981c0 0.281 0.232 0.51 0.5 0.51 0.276 0 0.5-0.222 0.5-0.51v-7.981c0-0.281-0.232-0.51-0.5-0.51v0z"></path>
</symbol>
<symbol id="icon-basketball" viewBox="0 0 32 32">
<title>basketball</title>
<path d="M4.088 17.99c-0.058-0.489-0.088-0.988-0.088-1.493 0-2.803 0.922-5.39 2.48-7.474 3.040 0.159 5.887 1.052 8.365 2.505-1.866 3.831-5.797 6.47-10.345 6.47-0.119 0-0.393-0.007-0.412-0.007v0zM4.25 18.995c1.157 5.707 6.202 10.002 12.25 10.002 0.332 0 0.66-0.013 0.986-0.038v0c-0.316-1.099-0.486-2.261-0.486-3.462 0-3.402 1.359-6.487 3.564-8.741-1.32-1.848-2.971-3.442-4.867-4.697-2.047 4.112-6.292 6.938-11.198 6.938-0.084 0-0.167-0.001-0.25-0.002v0 0zM15.733 4.021c-3.351 0.203-6.345 1.726-8.47 4.055v0c2.888 0.259 5.596 1.147 7.983 2.527 0.488-1.275 0.755-2.659 0.755-4.106 0-0.85-0.092-1.679-0.267-2.477v0 0zM16.75 4c5.593 0.11 10.285 3.893 11.764 9.036-2.752 0.215-5.253 1.32-7.216 3.028-1.41-1.944-3.169-3.618-5.187-4.929 0.573-1.434 0.888-2.999 0.888-4.637 0-0.855-0.086-1.691-0.25-2.498v0zM23.974 26.518c-1.58 1.181-3.449 1.996-5.481 2.322v0c-0.321-1.058-0.493-2.18-0.493-3.342 0-3.056 1.192-5.833 3.136-7.892 1.65 2.603 2.668 5.645 2.839 8.912v0 0zM24.921 25.735c2.506-2.286 4.079-5.578 4.079-9.238 0-0.848-0.084-1.676-0.245-2.476-2.636 0.169-5.030 1.225-6.886 2.873 1.68 2.588 2.763 5.6 3.053 8.84v0 0z"></path>
</symbol>
<symbol id="icon-basketball1" viewBox="0 0 32 32">
<title>basketball1</title>
<path d="M17.245 27.976v0c-0.161-0.8-0.245-1.628-0.245-2.476 0-3.402 1.359-6.487 3.564-8.741-1.32-1.848-2.971-3.442-4.867-4.697-1.939 3.896-5.852 6.638-10.43 6.915v0c1.133 5.161 5.732 9.023 11.233 9.023 0.25 0 0.499-0.008 0.745-0.024zM18.244 27.869c2.123-0.323 4.055-1.226 5.629-2.543v0c-0.329-2.814-1.291-5.435-2.738-7.718-1.944 2.059-3.136 4.837-3.136 7.892 0 0.812 0.084 1.604 0.244 2.369v0zM27.507 13.158c-1.394-4.596-5.587-7.975-10.595-8.151v0c0.058 0.489 0.088 0.988 0.088 1.493 0 1.639-0.315 3.203-0.888 4.637 2.017 1.311 3.777 2.985 5.187 4.929 1.721-1.497 3.855-2.532 6.209-2.909v0zM27.756 14.131v0c-2.24 0.341-4.268 1.328-5.888 2.766 1.463 2.253 2.473 4.828 2.901 7.595v0c2-2.069 3.231-4.887 3.231-7.992 0-0.812-0.084-1.604-0.244-2.369zM5.095 17.985v0 0c4.294-0.219 7.965-2.792 9.75-6.455-2.151-1.261-4.578-2.1-7.17-2.404-1.67 1.996-2.675 4.568-2.675 7.374 0 0.503 0.032 0.999 0.095 1.485zM15.905 5.015c-2.869 0.146-5.461 1.344-7.397 3.215 2.422 0.375 4.696 1.196 6.737 2.375 0.488-1.275 0.755-2.659 0.755-4.106 0-0.503-0.032-0.999-0.095-1.485v0 0zM4.159 18.498c-0.105-0.651-0.159-1.318-0.159-1.998 0-6.904 5.596-12.5 12.5-12.5s12.5 5.596 12.5 12.5c0 6.904-5.596 12.5-12.5 12.5-6.048 0-11.093-4.296-12.25-10.002-0.034-0.165-0.064-0.332-0.091-0.499v0z"></path>
</symbol>
<symbol id="icon-clock" viewBox="0 0 20 20">
<title>clock</title>
<path d="M10 0.4c-5.303 0-9.601 4.298-9.601 9.6 0 5.303 4.298 9.601 9.601 9.601 5.301 0 9.6-4.298 9.6-9.601s-4.299-9.6-9.6-9.6zM9.999 17.6c-4.197 0-7.6-3.402-7.6-7.6 0-4.197 3.402-7.6 7.6-7.6 4.197 0 7.601 3.402 7.601 7.6 0 4.197-3.404 7.6-7.601 7.6zM11 9.33v-5.33h-2v6.245l-3.546 2.048 1 1.732 4.115-2.377c0.238-0.137 0.431-0.473 0.431-0.748v-0.168l4.24-4.166c-0.198-0.271-0.411-0.529-0.647-0.766l-3.593 3.53z"></path>
</symbol>
<symbol id="icon-star" viewBox="0 0 20 20">
<title>star</title>
<path d="M10 1.3l2.388 6.722h6.412l-5.232 3.948 1.871 6.928-5.439-4.154-5.438 4.154 1.87-6.928-5.233-3.948h6.412l2.389-6.722z"></path>
</symbol>
<symbol id="icon-trophy" viewBox="0 0 20 20">
<title>trophy</title>
<path d="M11.18 14.356c0-1.451 1.1-2.254 2.894-3.442 2.194-1.456 4.926-3.265 4.926-7.56 0-0.387-0.317-0.699-0.709-0.699h-3.43c-0.484-0.896-1.929-1.855-4.861-1.855-2.934 0-4.377 0.959-4.862 1.855h-3.431c-0.391 0-0.707 0.313-0.707 0.699 0 4.295 2.73 6.104 4.926 7.559 1.794 1.188 2.894 1.991 2.894 3.442v1.311c-1.884 0.209-3.269 0.906-3.269 1.736 0 0.994 1.992 1.799 4.449 1.799s4.449-0.805 4.449-1.799c0-0.83-1.385-1.527-3.269-1.736v-1.31zM13.957 9.3c0.566-1.199 1.016-2.826 1.088-5.246h2.51c-0.24 2.701-1.862 4.064-3.598 5.246zM10 2.026c2.732-0.002 3.799 1.115 3.798 1.529 0 0.418-1.066 1.533-3.798 1.535-2.732-0.001-3.799-1.116-3.799-1.534-0.001-0.414 1.067-1.532 3.799-1.53zM2.445 4.054h2.509c0.073 2.42 0.521 4.047 1.089 5.246-1.736-1.182-3.359-2.545-3.598-5.246z"></path>
</symbol>
</defs>
</svg>
